<?xml version="1.0" standalone="no"?>
<!DOCTYPE svg PUBLIC "-//W3C//DTD SVG 20010904//EN"
 "http://www.w3.org/TR/2001/REC-SVG-20010904/DTD/svg10.dtd">
<svg version="1.0" xmlns="http://www.w3.org/2000/svg"
 width="1080.000000pt" height="1080.000000pt" viewBox="0 0 1080.000000 1080.000000"
 preserveAspectRatio="xMidYMid meet">

<g transform="translate(0.000000,1080.000000) scale(0.100000,-0.100000)"
fill="#000000" stroke="none">
<path d="M4892 8240 c0 -14 2 -19 5 -12 2 6 2 18 0 25 -3 6 -5 1 -5 -13z"/>
<path d="M4901 8210 c-1 -3 6 -71 14 -151 77 -772 9 -1435 -219 -2104 -69
-203 -104 -291 -266 -665 -217 -499 -283 -690 -316 -912 -23 -159 -15 -393 19
-538 79 -331 263 -679 573 -1077 92 -118 266 -325 269 -321 1 2 -6 55 -16 118
-39 232 -40 533 -4 712 37 180 100 310 202 419 268 284 695 167 798 -218 63
-234 -6 -542 -188 -841 -31 -51 -54 -92 -51 -92 2 0 50 28 105 63 332 206 584
460 718 724 102 201 149 386 158 627 9 247 -25 412 -127 616 -89 177 -193 307
-439 547 -124 121 -163 165 -154 174 6 6 44 17 84 25 177 34 241 103 283 307
21 101 21 101 -20 120 -47 23 -132 103 -154 147 -9 19 -27 69 -39 110 -37 122
-84 168 -222 214 -87 29 -93 35 -78 72 20 51 13 190 -15 285 -35 121 -107 297
-100 244 9 -61 -14 -230 -42 -315 -43 -128 -82 -184 -296 -423 -74 -82 -123
-165 -151 -252 -19 -62 -22 -91 -21 -245 1 -210 17 -284 115 -517 34 -81 77
-186 96 -233 42 -104 105 -318 98 -331 -4 -5 -28 3 -56 16 -120 61 -267 69
-429 25 -112 -31 -283 -119 -378 -195 -95 -76 -110 -71 -64 21 158 315 319
829 401 1287 69 379 95 687 95 1097 0 434 -32 778 -109 1155 -31 151 -72 319
-74 305z"/>
</g>
</svg>
